<?xml version="1.0" standalone="no"?>
<!DOCTYPE svg PUBLIC "-//W3C//DTD SVG 20010904//EN"
 "http://www.w3.org/TR/2001/REC-SVG-20010904/DTD/svg10.dtd">
<svg version="1.0" xmlns="http://www.w3.org/2000/svg"
 width="2208.000000pt" height="2208.000000pt" viewBox="0 0 2208.000000 2208.000000"
 preserveAspectRatio="xMidYMid meet">
<metadata>
Created by potrace 1.11, written by Peter Selinger 2001-2013
</metadata>
<g transform="translate(0.000000,2208.000000) scale(0.100000,-0.100000)"
fill="#000000" stroke="none">
<path d="M10987 22074 c-1 -1 -108 -5 -237 -8 -129 -4 -257 -8 -285 -11 -27
-2 -90 -6 -140 -10 -49 -3 -103 -8 -120 -10 -16 -2 -61 -7 -100 -10 -68 -6
-98 -9 -187 -20 -239 -28 -652 -98 -833 -140 -33 -8 -71 -16 -85 -19 -14 -3
-34 -7 -45 -10 -39 -9 -120 -28 -135 -31 -401 -92 -1111 -334 -1483 -504 -37
-17 -69 -31 -71 -31 -8 0 -233 -107 -390 -186 -449 -226 -871 -485 -1294 -792
-54 -40 -252 -190 -297 -227 -83 -67 -288 -237 -325 -271 -19 -17 -82 -73
-140 -125 -120 -107 -506 -489 -600 -594 -35 -38 -80 -88 -99 -110 -20 -22
-81 -94 -136 -160 -55 -66 -102 -122 -105 -125 -9 -8 -121 -150 -154 -195 -17
-22 -33 -42 -36 -45 -27 -22 -304 -415 -421 -597 -168 -259 -439 -728 -439
-758 0 -7 -7 -18 -15 -25 -8 -7 -15 -16 -15 -20 0 -4 -47 -103 -104 -221 -158
-327 -229 -496 -381 -914 -93 -256 -260 -824 -267 -910 0 -5 -4 -20 -9 -32
-19 -50 -87 -377 -114 -548 -9 -55 -18 -111 -21 -125 -2 -14 -9 -59 -14 -100
-6 -41 -14 -100 -20 -130 -5 -30 -12 -80 -15 -110 -8 -72 -15 -137 -20 -180
-7 -62 -20 -227 -32 -415 -16 -242 -8 -1071 12 -1231 2 -16 6 -72 10 -124 3
-52 8 -106 10 -120 3 -23 7 -52 20 -170 10 -87 50 -367 59 -416 3 -12 7 -39
10 -60 6 -36 14 -82 37 -194 5 -25 11 -56 13 -70 32 -178 139 -602 213 -840
110 -359 258 -757 380 -1029 14 -31 39 -87 56 -126 101 -226 318 -638 474
-900 159 -267 454 -700 610 -895 7 -8 60 -76 119 -150 59 -74 110 -137 113
-140 3 -3 31 -34 61 -70 75 -88 100 -117 135 -156 17 -18 62 -67 100 -110 314
-347 867 -849 1235 -1120 30 -22 91 -67 135 -100 230 -170 669 -453 910 -584
33 -19 80 -44 105 -58 186 -102 611 -309 775 -377 17 -7 44 -18 60 -25 215
-89 485 -191 682 -256 223 -74 676 -201 783 -220 14 -3 54 -12 90 -20 168 -39
505 -103 630 -119 25 -3 56 -8 70 -10 14 -3 45 -7 70 -10 25 -3 61 -7 80 -10
34 -5 162 -19 265 -31 27 -3 76 -7 110 -10 33 -2 85 -6 115 -9 200 -16 330
-20 685 -20 220 0 454 4 520 8 66 5 147 10 180 12 52 3 136 11 225 20 14 2 57
6 95 9 39 4 81 9 95 11 38 7 108 16 143 19 18 2 52 7 77 10 25 4 56 9 70 11
72 11 179 29 295 51 151 28 141 26 270 54 126 27 114 24 220 50 50 12 97 23
105 25 8 2 66 17 129 35 62 17 120 33 130 35 136 32 738 236 858 290 17 8 34
15 37 15 3 0 29 11 58 25 29 13 76 33 103 43 243 95 879 416 1103 559 29 18
55 33 57 33 10 0 345 216 485 313 467 322 868 656 1260 1047 377 377 589 620
868 990 40 52 75 100 80 105 77 95 300 425 412 610 269 443 396 686 607 1154
182 407 399 1040 498 1456 15 61 28 117 30 125 38 159 96 439 109 525 4 22 11
65 16 95 9 57 17 110 25 176 3 22 12 84 19 139 8 55 17 127 20 160 3 33 8 69
10 80 2 11 7 65 11 120 4 55 9 108 11 117 25 141 25 1177 -1 1423 -2 22 -7 74
-10 115 -8 107 -14 160 -19 200 -3 19 -10 76 -16 125 -18 156 -25 205 -56 390
-14 83 -31 182 -39 220 -8 39 -17 84 -19 100 -12 68 -58 265 -106 451 -28 110
-53 206 -55 214 -37 151 -206 650 -302 890 -93 235 -202 478 -320 715 -68 136
-159 310 -173 330 -4 6 -27 46 -50 90 -79 146 -366 608 -417 670 -4 6 -32 46
-62 90 -51 74 -297 405 -341 457 -59 71 -99 119 -130 158 -19 24 -51 62 -70
84 -19 22 -48 56 -65 75 -16 19 -53 59 -81 90 -28 31 -68 76 -90 101 -68 78
-454 462 -569 566 -161 145 -255 227 -278 243 -12 8 -28 22 -37 30 -50 48
-328 265 -490 382 -169 123 -486 336 -587 394 -10 6 -70 41 -133 79 -106 64
-214 125 -350 199 -127 69 -572 287 -586 287 -2 0 -37 15 -76 33 -66 31 -301
126 -468 191 -114 44 -510 174 -655 215 -162 46 -369 101 -405 107 -14 3 -41
9 -61 15 -84 22 -327 71 -519 105 -47 8 -96 17 -110 19 -21 4 -95 15 -210 31
-14 2 -47 6 -75 10 -27 3 -61 7 -75 9 -82 10 -122 15 -185 20 -38 4 -83 9
-100 11 -16 2 -79 6 -140 10 -60 3 -121 7 -135 10 -14 2 -133 7 -265 10 -132
3 -264 6 -293 7 -30 1 -54 2 -55 1z"/>
<path d="M10418 3155 c-2 -1 -28 -5 -59 -8 -31 -4 -79 -11 -105 -18 -27 -6
-59 -13 -72 -15 -29 -6 -170 -51 -197 -63 -195 -89 -311 -167 -441 -296 -116
-115 -186 -211 -254 -345 -43 -87 -97 -236 -115 -317 -5 -27 -11 -33 -33 -34
-130 -3 -954 0 -958 3 -2 3 8 31 22 62 32 69 43 190 25 262 -29 116 -113 224
-212 275 -57 29 -149 47 -215 43 -299 -20 -481 -333 -349 -596 l24 -48 -37 -1
c-20 0 -108 -1 -196 -2 l-158 -2 -45 -100 c-87 -195 -105 -230 -111 -215 -2 8
-25 58 -49 110 -24 52 -61 130 -80 173 l-36 77 -174 0 -174 0 -30 -67 c-16
-38 -40 -90 -52 -118 -12 -27 -36 -79 -53 -115 l-31 -65 -28 60 c-15 33 -49
106 -75 161 l-47 101 -422 1 c-231 0 -419 -3 -417 -6 2 -4 28 -59 59 -122 30
-63 107 -223 172 -355 65 -132 157 -321 205 -420 48 -99 152 -310 230 -470 78
-159 183 -374 233 -477 50 -104 93 -188 96 -188 4 0 14 17 23 38 35 76 68 150
113 252 26 58 53 119 61 135 7 17 40 90 73 163 32 73 62 134 65 135 4 1 41
-74 82 -168 41 -93 79 -179 84 -190 20 -42 113 -253 137 -310 14 -33 27 -62
28 -64 2 -2 60 111 128 250 296 607 381 779 386 779 4 0 6 -138 6 -307 l0
-308 995 -2 c563 -1 997 2 1000 7 3 5 5 101 5 214 0 113 2 206 5 205 3 0 23
-22 45 -47 155 -183 387 -321 655 -391 211 -55 522 -61 743 -15 279 57 521
199 674 392 18 23 18 20 18 -160 -1 -101 1 -188 3 -195 3 -9 92 -12 356 -12
l352 -1 -2 56 -1 56 20 -20 c18 -18 19 -24 7 -52 -7 -17 -11 -33 -8 -35 3 -3
217 -4 477 -3 l473 3 -52 67 c-40 52 -50 72 -45 89 8 24 75 171 82 178 5 7
182 8 192 2 7 -5 33 -58 78 -161 8 -19 28 -63 44 -98 16 -35 29 -67 29 -73 0
-15 1048 -9 1152 6 106 16 196 40 263 69 57 26 148 82 180 112 55 51 53 55 51
-75 l-1 -120 627 0 628 0 0 919 0 920 -27 1 c-152 3 -1215 0 -1219 -4 -3 -3
-6 -57 -6 -120 l0 -115 -26 22 c-13 11 -30 26 -37 33 -15 14 -111 74 -145 91
-109 51 -205 73 -384 87 -60 5 -703 9 -773 6 -10 -1 -13 -79 -13 -353 l0 -353
-26 55 c-14 30 -35 75 -46 100 -11 25 -38 82 -60 128 -21 46 -67 145 -102 220
-35 75 -79 171 -99 212 -19 41 -48 104 -65 140 -16 36 -49 107 -74 159 l-44
93 -38 -83 c-87 -189 -110 -239 -157 -338 -27 -56 -49 -105 -49 -107 0 -2 -32
-70 -71 -151 -39 -82 -77 -164 -85 -183 -8 -19 -31 -70 -52 -113 l-38 -79 -2
65 c-3 87 -34 205 -74 280 -41 77 -134 175 -211 220 -61 37 -175 72 -271 82
-43 5 -634 9 -701 6 -6 -1 -10 -43 -10 -108 l0 -107 -203 -1 c-111 0 -202 2
-202 5 0 3 40 34 88 70 379 284 471 357 467 367 -14 40 -261 317 -347 389
-161 136 -379 230 -627 270 -30 5 -338 13 -343 9z m307 -850 c79 -27 145 -75
220 -161 39 -43 75 -82 80 -86 14 -10 18 -10 -300 -12 l-280 -1 -1 -402 -1
-403 36 -1 c20 0 106 0 191 0 164 1 176 -6 59 -33 -72 -17 -260 -16 -326 2
-169 47 -304 177 -359 349 -24 75 -30 263 -11 355 15 70 46 152 72 187 34 47
147 149 186 169 120 58 321 75 434 37z m3972 -770 c59 -39 86 -187 54 -301
-20 -69 -62 -104 -128 -104 l-38 0 -1 213 0 214 45 -4 c25 -2 56 -10 68 -18z
m-5469 -278 c17 -52 32 -95 32 -98 0 -2 -44 -4 -97 -4 -57 1 -97 5 -95 10 4
15 116 184 122 185 3 0 20 -42 38 -93z m-952 61 c2 -3 -12 -27 -31 -54 l-35
-49 0 56 0 55 31 -2 c17 -1 32 -4 35 -6z"/>
</g>
</svg>
